<svg id="Capa_1" data-name="Capa 1" xmlns="http://www.w3.org/2000/svg" viewBox="0 0 612 792">
    <defs>
        <style>.cls-1,.cls-2{fill:none;}.cls-1{stroke:#000307;stroke-linecap:round;stroke-linejoin:round;stroke-width:1.06px;}.cls-2{stroke:#4c9e45;stroke-miterlimit:10;stroke-width:5.67px;}</style>
    </defs>
    <title>correcion ultima</title>
    <path class="cls-1" d="M542,563.84c-27.1-24.06-39.36-41.58-46.68-53.37-3.36-5.4-5.67-9.61-7.51-13.11-2.16-4.15-3.63-7.32-5.31-10.38A69.17,69.17,0,0,0,473,473.5c-2.57-2.63-3.86-2.63-5.43-2.25a18.59,18.59,0,0,0-5.18,2.17c-1.75,1.07-3.42,2.45-5.68,3.87a19.89,19.89,0,0,1-8.73,3.29c-3.6.37-7.94-.38-11.82-1.34a39.84,39.84,0,0,1-10.22-3.84,25,25,0,0,1-7.47-6.55,39.38,39.38,0,0,1-5.41-9.51,36.45,36.45,0,0,1-2.27-10.26,68.17,68.17,0,0,1,.05-11.69c.37-3.84,1.11-7.35,2-13.9a250.41,250.41,0,0,0,2.13-27.17c.23-11-.33-23.37-1.11-36.58s-1.8-27.26-2.13-41.39c-.16-7.32-.15-14.65,0-21.16.09-6.08.27-11.43.45-15.38a89.91,89.91,0,0,1,1.11-12.61c.36-2.31.74-4.8,1.16-8.22s.87-7.76,1.47-11.91a49.49,49.49,0,0,1,2.73-11.55c1.38-3.42,3.42-6.29,5.76-7.83a10.37,10.37,0,0,1,7.5-1.35,15.94,15.94,0,0,1,6.55,2.7,10.6,10.6,0,0,1,3.9,4.86,17.81,17.81,0,0,1,1,3.21,23.4,23.4,0,0,1,.54,4.71,61,61,0,0,1-.86,9.25c-.42,3.08-.76,6-1,8.37a30.42,30.42,0,0,0-.3,6.23c.16,2.1.67,4.53,1,12.93"/>
    <path class="cls-1" d="M459.11,279.28c.88-1.34.45-5.39.22-8.72a52,52,0,0,1,0-7.89c.16-2,.51-3.28.81-5.55s.54-5.44.88-8a44.93,44.93,0,0,0,.65-5.52,8.24,8.24,0,0,0,0-.86,9.52,9.52,0,0,0-2.15-5,10.88,10.88,0,0,0-4.44-3.36,11.33,11.33,0,0,0-5.29-.58c-1.8.16-3.57.61-6.42,5.37"/>
    <path class="cls-1" d="M472.82,291.05a62.86,62.86,0,0,1,.57-8.1,62.22,62.22,0,0,0,1.09-6.7,41.33,41.33,0,0,0-.49-5.79,32.76,32.76,0,0,1,.1-5c.05-.79.08-1.6.11-2.43V263c0-.85.06-1.72.06-2.62a36.76,36.76,0,0,0-.24-5.66,24.2,24.2,0,0,0-1.55-5.86,10.8,10.8,0,0,0-3.21-4.46c-1.53-1.26-3.67-2.37-7.63-.79"/>
    <path class="cls-1" d="M474.2,263.06V263c.1-2.64,1.83-3.28,3.49-3.49a8.23,8.23,0,0,1,4.83.75,11.44,11.44,0,0,1,4.16,3.54,20,20,0,0,1,2.55,5.13,27.52,27.52,0,0,1,1.44,5.77,49.3,49.3,0,0,1,.33,7.05c0,.65,0,1.29-.06,1.89-.08,1.59-.2,3-.38,4.29-.24,1.73-.6,3.09-.78,4.56-.15,1.28-.18,2.64-.33,4.73,0,.34-.06.72-.09,1.11"/>
    <path class="cls-1" d="M541.67,363.2c-9,2.82-15.38,4.85-20,6.35-7.93,2.56-10.78,3.57-13.41,4.27A29.9,29.9,0,0,1,497.19,375a.15.15,0,0,0-.09,0,42.82,42.82,0,0,1-10.81-3c-4-1.53-8.64-3.45-11-5.21"/>
    <path class="cls-1" d="M497.19,375c2.18-8.4,4.32-18.66,5.49-26a108.13,108.13,0,0,0,1.43-16.82c.07-4.65.07-9.36,0-12.54s-.11-4.83-.18-7.29-.15-5.77-.12-8.86c0-2.21.12-4.31.13-6.27,0-.8,0-1.58,0-2.33a19.14,19.14,0,0,0-1.14-6.93,9.38,9.38,0,0,0-4.09-4.62c-1.91-1.08-4.32-1.66-7.8.3"/>
    <path class="cls-1" d="M499.2,288.79c-.09.73-.15.91-.31,1a3.13,3.13,0,0,1-1.31.26,21.66,21.66,0,0,1-3.24,0,4.41,4.41,0,0,1-1.92-.6.94.94,0,0,1-.49-.87c-.05-.47,0-1.23,0-1.94a4.94,4.94,0,0,1,.2-1.89,2.25,2.25,0,0,1,1.47-1.23,5.2,5.2,0,0,1,2.71-.16,6.15,6.15,0,0,1,2.3,1.05,1.71,1.71,0,0,1,.78,1.51A19.64,19.64,0,0,1,499.2,288.79Z"/>
    <path class="cls-1" d="M485.36,268.24c-.08.31-.17.42-.95.58a19.94,19.94,0,0,1-3.58.44,15.37,15.37,0,0,1-3.51-.33c-.8-.18-1.07-.36-1.25-.77a6.53,6.53,0,0,1-.33-1.83,17.24,17.24,0,0,1-.06-2.59,2.82,2.82,0,0,1,.62-1.85,3.13,3.13,0,0,1,2.07-.67,9.33,9.33,0,0,1,3.33.28,5.32,5.32,0,0,1,2.37,1.49,4.06,4.06,0,0,1,.93,1.69,11.84,11.84,0,0,1,.4,2.09A5.05,5.05,0,0,1,485.36,268.24Z"/>
    <path class="cls-1" d="M471.14,252.83a5.66,5.66,0,0,1-.15,1.79c-.18.4-.56.58-1.79.7a28.78,28.78,0,0,1-4.66.05,4.15,4.15,0,0,1-2.39-.72,1.25,1.25,0,0,1-.33-1,16.39,16.39,0,0,1,0-2c0-1.26.18-3.33.28-4.47s.2-1.35.38-1.58a2.45,2.45,0,0,1,.84-.67,3.36,3.36,0,0,1,1.63-.54,5,5,0,0,1,2.6.55,7.07,7.07,0,0,1,2.68,2.25,6,6,0,0,1,.93,3A23.56,23.56,0,0,1,471.14,252.83Z"/>
    <path class="cls-1" d="M459,242.65a9.9,9.9,0,0,1-.42,2.4c-.33,1.3-.9,3.31-1.26,4.35s-.54,1.14-.82,1.24a5.33,5.33,0,0,1-2,.24,29.19,29.19,0,0,1-5.08-.42,8.74,8.74,0,0,1-3-1.14c-.52-.33-.6-.45-.63-.76s0-.86,0-2.42,0-4.15.06-5.77a6.29,6.29,0,0,1,.6-2.85,2.5,2.5,0,0,1,1.54-1.32,8.28,8.28,0,0,1,3.62-.21,8.83,8.83,0,0,1,4.06,1.71,12.17,12.17,0,0,1,2.78,3.15A2.79,2.79,0,0,1,459,242.65Z"/>
    <path class="cls-1" d="M439.29,239.51a18.37,18.37,0,0,1-.36,3.8,42,42,0,0,1-.87,4.41,2,2,0,0,1-1.35,1.6A8.59,8.59,0,0,1,433,250a27.52,27.52,0,0,1-6.83-.89A6,6,0,0,1,422.9,247a4.17,4.17,0,0,1-1-2.08,10.29,10.29,0,0,1,.5-3.06c.39-1.7,1-4.41,1.5-6a4.19,4.19,0,0,1,1.59-2.6,5.57,5.57,0,0,1,2.94-.94,20.08,20.08,0,0,1,5.16.52c1.81.41,3.51,1,4.47,2.22A7.78,7.78,0,0,1,439.29,239.51Z"/>
    <path class="cls-1" d="M169.36,280.6c.3-8.4.81-10.83,1-12.93a31.14,31.14,0,0,0-.3-6.23c-.27-2.35-.62-5.29-1-8.37a61,61,0,0,1-.85-9.25,23.4,23.4,0,0,1,.54-4.71,17.82,17.82,0,0,1,1-3.21,10.6,10.6,0,0,1,3.9-4.86,15.92,15.92,0,0,1,6.56-2.7,10.38,10.38,0,0,1,7.5,1.35c2.34,1.54,4.38,4.41,5.76,7.83a50,50,0,0,1,2.73,11.55c.6,4.15,1.06,8.49,1.48,11.91s.78,5.91,1.16,8.22a93.27,93.27,0,0,1,1.09,12.61c.18,3.95.36,9.3.45,15.38.12,6.51.14,13.84,0,21.16-.31,14.13-1.33,28.17-2.13,41.39s-1.33,25.59-1.09,36.58a246.17,246.17,0,0,0,2.11,27.17c.89,6.55,1.62,10.06,2,13.9a67.16,67.16,0,0,1,0,11.69A36.44,36.44,0,0,1,199,459.34a39.34,39.34,0,0,1-5.4,9.51,25.32,25.32,0,0,1-7.49,6.55,39.9,39.9,0,0,1-10.21,3.84c-3.89,1-8.22,1.71-11.82,1.34a20,20,0,0,1-8.73-3.29c-2.27-1.42-3.93-2.8-5.69-3.87a18.54,18.54,0,0,0-5.17-2.17c-1.58-.38-2.87-.38-5.43,2.25A68.74,68.74,0,0,0,129.51,487c-1.68,3.06-3.15,6.23-5.31,10.38-1.85,3.5-4.16,7.71-7.52,13.11-7.32,11.79-19.57,29.31-46.66,53.37"/>
    <path class="cls-1" d="M190.09,245a4.14,4.14,0,0,1-1,2.08,6.07,6.07,0,0,1-3.32,2.07A27.44,27.44,0,0,1,179,250a8.68,8.68,0,0,1-3.68-.68,2.06,2.06,0,0,1-1.35-1.6c-.31-1.07-.63-3-.87-4.41a17.06,17.06,0,0,1-.34-3.8,7.69,7.69,0,0,1,1.23-4.44,7.83,7.83,0,0,1,4.47-2.22,20,20,0,0,1,5.16-.52,5.68,5.68,0,0,1,3,.94,4.24,4.24,0,0,1,1.58,2.6c.51,1.62,1.11,4.33,1.5,6A9.84,9.84,0,0,1,190.09,245Z"/>
    <path class="cls-1" d="M166.26,246.14c0,1.56,0,2.09,0,2.42s-.1.43-.63.76a8.67,8.67,0,0,1-3,1.14,29.3,29.3,0,0,1-5.09.42,5.23,5.23,0,0,1-2-.24c-.28-.1-.46-.19-.82-1.24s-1-3.05-1.28-4.35a11.06,11.06,0,0,1-.42-2.4,2.88,2.88,0,0,1,.59-1.8,12,12,0,0,1,2.79-3.15,8.66,8.66,0,0,1,4.05-1.71,8.25,8.25,0,0,1,3.61.21,2.52,2.52,0,0,1,1.55,1.32,6.29,6.29,0,0,1,.6,2.85C166.29,242,166.26,244.58,166.26,246.14Z"/>
    <path class="cls-1" d="M150.16,253.67a1.25,1.25,0,0,1-.33,1,4.07,4.07,0,0,1-2.38.72,28.91,28.91,0,0,1-4.67-.05c-1.23-.12-1.6-.3-1.78-.7a5.38,5.38,0,0,1-.15-1.79,21.22,21.22,0,0,1,0-2.64,6.25,6.25,0,0,1,.93-3,7,7,0,0,1,2.69-2.25,5,5,0,0,1,2.59-.55,3.41,3.41,0,0,1,1.64.54,2.85,2.85,0,0,1,.85.67c.17.23.24.44.36,1.58s.26,3.21.29,4.47A15.54,15.54,0,0,1,150.16,253.67Z"/>
    <path class="cls-1" d="M136.24,266.33a5.87,5.87,0,0,1-.33,1.83c-.18.41-.45.59-1.24.77a15.5,15.5,0,0,1-3.51.33,20.19,20.19,0,0,1-3.59-.44c-.76-.16-.87-.27-.94-.58a5.35,5.35,0,0,1,0-1.47,12.86,12.86,0,0,1,.41-2.09,3.85,3.85,0,0,1,.93-1.69,5.38,5.38,0,0,1,2.37-1.49,9.31,9.31,0,0,1,3.33-.28,3.13,3.13,0,0,1,2.07.67,2.77,2.77,0,0,1,.61,1.85A16,16,0,0,1,136.24,266.33Z"/>
    <path class="cls-1" d="M120.07,288.64a1,1,0,0,1-.51.87,4.36,4.36,0,0,1-1.92.6,21.69,21.69,0,0,1-3.24,0,3.06,3.06,0,0,1-1.3-.26c-.17-.12-.23-.3-.32-1a18.32,18.32,0,0,1-.16-2.81,1.67,1.67,0,0,1,.79-1.51,5.9,5.9,0,0,1,2.28-1.05,5.24,5.24,0,0,1,2.72.16,2.3,2.3,0,0,1,1.47,1.23,5.15,5.15,0,0,1,.19,1.89C120.07,287.41,120.1,288.17,120.07,288.64Z"/>
    <path class="cls-1" d="M121.05,283.61c-3.48-2-5.9-1.38-7.8-.3a9.4,9.4,0,0,0-4.1,4.62,19.36,19.36,0,0,0-1.14,6.93c0,.75,0,1.53,0,2.33,0,2,.09,4.06.14,6.27,0,3.09-.05,6.39-.12,8.86s-.15,4.11-.18,7.29,0,7.89,0,12.54A106.67,106.67,0,0,0,109.3,349c1.17,7.38,3.32,17.64,5.49,26"/>
    <path class="cls-1" d="M136.69,366.74c-2.35,1.76-7,3.68-11,5.21a42.77,42.77,0,0,1-10.82,3,.15.15,0,0,0-.09,0,29.94,29.94,0,0,1-11.07-1.19c-2.61-.7-5.46-1.71-13.41-4.27-4.62-1.5-11-3.53-20-6.35"/>
    <path class="cls-1" d="M137.79,263.06V263c-.11-2.64-1.83-3.28-3.5-3.49a8.27,8.27,0,0,0-4.83.75,11.41,11.41,0,0,0-4.15,3.54,19.37,19.37,0,0,0-2.55,5.13,26.33,26.33,0,0,0-1.44,5.77,47.91,47.91,0,0,0-.32,7.05c0,.65,0,1.29,0,1.89.07,1.59.19,3,.37,4.29.24,1.73.6,3.09.78,4.56.15,1.28.18,2.64.33,4.73,0,.34.06.72.09,1.11"/>
    <path class="cls-1" d="M139.17,291.05a64.74,64.74,0,0,0-.57-8.1,64.88,64.88,0,0,1-1.1-6.7,41.25,41.25,0,0,1,.5-5.79,31.49,31.49,0,0,0-.11-5c0-.79-.07-1.6-.1-2.43V263c0-.85,0-1.72-.06-2.62a36.76,36.76,0,0,1,.24-5.66,24.65,24.65,0,0,1,1.54-5.86,10.89,10.89,0,0,1,3.21-4.46c1.53-1.26,3.68-2.37,7.64-.79"/>
    <path class="cls-1" d="M152.88,279.28c-.89-1.34-.45-5.39-.23-8.72a50.92,50.92,0,0,0,0-7.89c-.17-2-.51-3.28-.81-5.55s-.54-5.44-.89-8a44.69,44.69,0,0,1-.64-5.52,8.24,8.24,0,0,1,0-.86,9.58,9.58,0,0,1,2.14-5,11,11,0,0,1,4.44-3.36,11.37,11.37,0,0,1,5.3-.58c1.8.16,3.57.61,6.42,5.37"/>
    <rect class="cls-2" x="180.68" y="259.47" width="250.62" height="192.14" transform="translate(-49.55 661.53) rotate(-90)"/>
</svg>