<svg id="Default" xmlns="http://www.w3.org/2000/svg" viewBox="0 0 612 792">
    <defs>
        <style>.cls-1,.cls-2{fill:none;stroke-linecap:round;stroke-linejoin:round;}.cls-1{stroke:#000;stroke-width:1.06px;}.cls-2{stroke:#42bf00;stroke-width:6.38px;}</style>
    </defs>
    <title>mdm</title>
    <path class="cls-1" d="M226.92,262.78c0-1.38,0-3.69-.05-5.13a5.61,5.61,0,0,0-.53-2.52A2.21,2.21,0,0,0,225,254a7.23,7.23,0,0,0-3.21-.19,7.88,7.88,0,0,0-3.6,1.51,11,11,0,0,0-2.47,2.79,2.59,2.59,0,0,0-.52,1.6,9.41,9.41,0,0,0,.37,2.13c.29,1.15.8,2.93,1.12,3.86s.48,1,.73,1.1a4.7,4.7,0,0,0,1.76.21,25.79,25.79,0,0,0,4.5-.37,7.85,7.85,0,0,0,2.69-1c.46-.28.53-.39.56-.67S226.92,264.16,226.92,262.78Z"/>
    <path class="cls-1" d="M212.69,267.63c0-1.11-.16-2.95-.26-4s-.17-1.2-.32-1.4a2.69,2.69,0,0,0-.75-.6,3.28,3.28,0,0,0-1.45-.48,4.5,4.5,0,0,0-2.3.49,6.31,6.31,0,0,0-2.39,2,5.53,5.53,0,0,0-.83,2.69,23,23,0,0,0,0,2.34,4.91,4.91,0,0,0,.13,1.59c.15.36.49.52,1.58.62a26.55,26.55,0,0,0,4.14,0,3.65,3.65,0,0,0,2.12-.65,1.05,1.05,0,0,0,.29-.87A13.77,13.77,0,0,0,212.69,267.63Z"/>
    <path class="cls-1" d="M200.3,280.68a16.08,16.08,0,0,0,.05-2.3,2.49,2.49,0,0,0-.55-1.64,2.83,2.83,0,0,0-1.83-.6,8.46,8.46,0,0,0-3,.25,4.86,4.86,0,0,0-2.1,1.33,3.42,3.42,0,0,0-.82,1.5,10.4,10.4,0,0,0-.36,1.84,4.54,4.54,0,0,0,0,1.31c.06.27.15.36.84.52a17.57,17.57,0,0,0,3.19.39,13.88,13.88,0,0,0,3.11-.3c.71-.16.94-.31,1.1-.67A5.62,5.62,0,0,0,200.3,280.68Z"/>
    <path class="cls-1" d="M179.49,300.6a16.58,16.58,0,0,1-.14-2.5,1.5,1.5,0,0,1,.7-1.34,5.3,5.3,0,0,1,2-.94,4.81,4.81,0,0,1,2.42.14,2,2,0,0,1,1.3,1.1,4.44,4.44,0,0,1,.17,1.67c0,.62,0,1.3,0,1.72a.83.83,0,0,1-.44.78,3.77,3.77,0,0,1-1.71.53,18.3,18.3,0,0,1-2.87,0,2.47,2.47,0,0,1-1.15-.23C179.63,301.41,179.57,301.25,179.49,300.6Z"/>
    <line class="cls-1" x1="181.28" y1="377.07" x2="181.28" y2="377.06"/>
    <path class="cls-1" d="M181.28,377.06h.07a39,39,0,0,0,9.6-2.7c3.54-1.37,7.65-3.06,9.75-4.62"/>
    <path class="cls-1" d="M186.83,296c.06,1.41.16,2.7.31,3.81.22,1.55.54,2.75.7,4.05s.15,2.75.38,5.18"/>
    <path class="cls-1" d="M201.67,277.79v-.07"/>
    <path class="cls-1" d="M202.9,302.61a56.88,56.88,0,0,0-.51-7.19,53.37,53.37,0,0,1-1-6,34.84,34.84,0,0,1,.44-5.13,30.45,30.45,0,0,0-.09-4.4c0-.7-.08-1.42-.11-2.16v-.07"/>
    <path class="cls-1" d="M212.81,260.49a41.94,41.94,0,0,0,.59,4.91c.3,2.28.52,5.11.78,7.13s.57,3.16.72,4.92a47.55,47.55,0,0,1,0,7c-.19,3-.58,6.54.19,7.73"/>
    <path class="cls-1" d="M229.07,256.53a21.64,21.64,0,0,0-.48,4.19,54.93,54.93,0,0,0,.76,8.2c.38,2.71.68,5.34.92,7.43a28,28,0,0,1,.27,5.52c-.13,1.86-.6,4-.85,11.46"/>
    <path class="cls-1" d="M141.83,544.32l-.27.24"/>
    <path class="cls-1" d="M382.91,256.53a21.64,21.64,0,0,1,.48,4.19,57,57,0,0,1-.75,8.2c-.37,2.71-.68,5.34-.92,7.43a28.1,28.1,0,0,0-.28,5.52c.15,1.86.6,4,.87,11.46"/>
    <path class="cls-1" d="M396.94,292.16c.8-1.19.39-4.77.2-7.73a47.55,47.55,0,0,1,0-7c.17-1.75.46-2.92.72-4.92s.48-4.85.8-7.12a41.92,41.92,0,0,0,.57-4.91"/>
    <path class="cls-1" d="M409.09,302.61a59.89,59.89,0,0,1,.51-7.19,57.19,57.19,0,0,0,1-6,34.84,34.84,0,0,0-.44-5.13,28.44,28.44,0,0,1,.09-4.4c0-.79.07-1.6.11-2.43"/>
    <path class="cls-1" d="M423.77,309c.21-2.43.21-3.86.38-5.18s.46-2.5.69-4.05a37.26,37.26,0,0,0,.33-3.81"/>
    <path class="cls-1" d="M410.33,277.52a1.63,1.63,0,0,0,0,.27"/>
    <path class="cls-1" d="M411.29,369.74c2.09,1.56,6.19,3.25,9.75,4.62a38.85,38.85,0,0,0,9.59,2.7h.13"/>
    <path class="cls-1" d="M430.76,377.07c-.08.33-.17.66-.24,1"/>
    <path class="cls-1" d="M432.5,300.6a16.63,16.63,0,0,0,.14-2.5,1.5,1.5,0,0,0-.7-1.34,5.3,5.3,0,0,0-2-.94,4.81,4.81,0,0,0-2.42.14,2,2,0,0,0-1.3,1.1,4.43,4.43,0,0,0-.17,1.67c0,.62,0,1.3,0,1.72a.83.83,0,0,0,.44.78,3.77,3.77,0,0,0,1.71.53,18.3,18.3,0,0,0,2.87,0,2.47,2.47,0,0,0,1.15-.23C432.37,301.41,432.42,301.25,432.5,300.6Z"/>
    <path class="cls-1" d="M411.69,280.68a16.08,16.08,0,0,1-.05-2.3,2.48,2.48,0,0,1,.55-1.64,2.83,2.83,0,0,1,1.83-.6,8.46,8.46,0,0,1,3,.25,4.86,4.86,0,0,1,2.1,1.33,3.42,3.42,0,0,1,.82,1.5,10.4,10.4,0,0,1,.36,1.84,4.52,4.52,0,0,1,0,1.31c-.06.27-.15.36-.84.52a17.57,17.57,0,0,1-3.19.39,13.87,13.87,0,0,1-3.11-.3c-.71-.16-.94-.31-1.1-.67A5.62,5.62,0,0,1,411.69,280.68Z"/>
    <path class="cls-1" d="M399.3,267.63c0-1.11.16-2.95.26-4s.17-1.2.32-1.4a2.69,2.69,0,0,1,.75-.6,3.28,3.28,0,0,1,1.45-.48,4.5,4.5,0,0,1,2.3.49,6.31,6.31,0,0,1,2.39,2,5.53,5.53,0,0,1,.83,2.69,22.89,22.89,0,0,1,0,2.34,4.91,4.91,0,0,1-.13,1.59c-.15.36-.49.52-1.58.62a26.54,26.54,0,0,1-4.14,0,3.65,3.65,0,0,1-2.12-.65,1.05,1.05,0,0,1-.29-.87A13.77,13.77,0,0,1,399.3,267.63Z"/>
    <path class="cls-1" d="M385.07,262.78c0-1.38,0-3.69.05-5.13a5.61,5.61,0,0,1,.53-2.52A2.21,2.21,0,0,1,387,254a7.23,7.23,0,0,1,3.21-.19,7.88,7.88,0,0,1,3.6,1.51,11,11,0,0,1,2.47,2.79,2.59,2.59,0,0,1,.52,1.6,9.41,9.41,0,0,1-.37,2.13c-.29,1.15-.8,2.93-1.12,3.86s-.48,1-.73,1.1a4.71,4.71,0,0,1-1.76.21,25.79,25.79,0,0,1-4.5-.37,7.85,7.85,0,0,1-2.69-1c-.46-.28-.53-.39-.56-.67S385.07,264.16,385.07,262.78Z"/>
    <path class="cls-1" d="M364.37,259c.35-1.5.88-3.91,1.33-5.35a3.7,3.7,0,0,1,1.4-2.3,4.9,4.9,0,0,1,2.62-.83,17.54,17.54,0,0,1,4.57.46,5.23,5.23,0,0,1,5.07,5.9,16,16,0,0,1-.31,3.37,37.16,37.16,0,0,1-.77,3.91,1.8,1.8,0,0,1-1.19,1.42,7.6,7.6,0,0,1-3.26.6,24.17,24.17,0,0,1-6.05-.79,5.35,5.35,0,0,1-2.94-1.84,3.69,3.69,0,0,1-.89-1.85A8.82,8.82,0,0,1,364.37,259Z"/>
    <rect class="cls-1" x="261.02" y="407.63" width="90.68" height="52.7"/>
    <path class="cls-1" d="M247.62,259c-.35-1.5-.88-3.91-1.33-5.35a3.7,3.7,0,0,0-1.4-2.3,4.9,4.9,0,0,0-2.62-.83,17.53,17.53,0,0,0-4.57.46,5.23,5.23,0,0,0-5.07,5.9,16,16,0,0,0,.31,3.37,37.15,37.15,0,0,0,.78,3.91,1.8,1.8,0,0,0,1.19,1.42,7.59,7.59,0,0,0,3.26.6,24.17,24.17,0,0,0,6.05-.79,5.35,5.35,0,0,0,2.94-1.84,3.69,3.69,0,0,0,.89-1.85A8.82,8.82,0,0,0,247.62,259Z"/>
    <path class="cls-1" d="M141.83,366.6c21.77,6.79,26,8.41,29.63,9.42a26.18,26.18,0,0,0,9.83,1c-1.94-7.45-3.84-16.53-4.87-23.08A96,96,0,0,1,175.15,339c-.06-4.11-.06-8.3,0-11.12s.11-4.27.17-6.46.13-5.11.1-7.86-.16-5.29-.12-7.62a16.79,16.79,0,0,1,1-6.15,8.27,8.27,0,0,1,3.64-4.09c1.68-1,3.82-1.47,6.91.25,0-.54,0-1.09-.06-1.66a44.87,44.87,0,0,1,.29-6.26,24.21,24.21,0,0,1,1.29-5.13,17.84,17.84,0,0,1,2.25-4.54,10.28,10.28,0,0,1,3.69-3.14,7.44,7.44,0,0,1,4.29-.68c1.47.2,3,.77,3.09,3.12,0-.77,0-1.55,0-2.34a31.92,31.92,0,0,1,.21-5,21.11,21.11,0,0,1,1.38-5.2,9.49,9.49,0,0,1,2.83-4c1.37-1.11,3.26-2.1,6.77-.7a6.35,6.35,0,0,1,0-.77,8.38,8.38,0,0,1,1.89-4.46,9.7,9.7,0,0,1,3.95-3,10.18,10.18,0,0,1,4.69-.52c1.59.15,3.17.54,5.69,4.77a16.76,16.76,0,0,1,.9-2.85,9.55,9.55,0,0,1,3.45-4.3,14.31,14.31,0,0,1,5.82-2.4,9.15,9.15,0,0,1,6.64,1.2,15,15,0,0,1,5.12,6.95,44.19,44.19,0,0,1,2.41,10.25c.54,3.67.95,7.53,1.32,10.56s.69,5.25,1,7.29a81.12,81.12,0,0,1,1,11.19c.33,7.26.64,19.88.36,32.41s-1.19,25-1.87,36.71-1.2,22.7-1,32.45a219.23,219.23,0,0,0,1.89,24.09c.78,5.82,1.43,8.94,1.75,12.33a58.39,58.39,0,0,1,0,10.36,31.64,31.64,0,0,1-2,9.11,34.2,34.2,0,0,1-4.79,8.45,22.61,22.61,0,0,1-6.64,5.8,35,35,0,0,1-9.06,3.41,32.45,32.45,0,0,1-10.48,1.18,17.67,17.67,0,0,1-7.74-2.91c-2-1.26-3.48-2.49-5-3.43a16,16,0,0,0-4.59-1.92c-1.39-.33-2.54-.33-4.82,2a61.82,61.82,0,0,0-8.43,12c-2.76,5-4.89,10.36-11.38,20.82s-17.28,25.89-41.12,47.11"/>
    <rect class="cls-2" x="261.02" y="407.63" width="90.68" height="52.7"/>
    <path class="cls-1" d="M470.44,545.18c-23.52-21-35-37.62-41.4-48s-8.61-15.83-11.37-20.82a61.77,61.77,0,0,0-8.45-12c-2.27-2.31-3.42-2.31-4.81-2a16.16,16.16,0,0,0-4.59,1.92c-1.55.95-3,2.18-5,3.43A17.73,17.73,0,0,1,387,470.7a32.49,32.49,0,0,1-10.48-1.18,35.37,35.37,0,0,1-9.06-3.41,22.37,22.37,0,0,1-6.63-5.8,34.75,34.75,0,0,1-4.8-8.45,32.13,32.13,0,0,1-2-9.11,57,57,0,0,1,0-10.36c.33-3.39,1-6.51,1.77-12.33A216.11,216.11,0,0,0,357.74,396c.21-9.75-.29-20.73-1-32.45s-1.61-24.18-1.89-36.71,0-25.16.38-32.41a82.34,82.34,0,0,1,1-11.19c.33-2,.66-4.26,1-7.29s.78-6.89,1.31-10.56A45,45,0,0,1,361,255.12a15,15,0,0,1,5.11-6.95,9.16,9.16,0,0,1,6.64-1.2,14.22,14.22,0,0,1,5.82,2.4,9.58,9.58,0,0,1,3.46,4.3,15.54,15.54,0,0,1,.89,2.85c2.54-4.23,4.09-4.62,5.68-4.77a10.25,10.25,0,0,1,4.71.52,9.8,9.8,0,0,1,3.95,3,8.5,8.5,0,0,1,1.89,4.46,6.54,6.54,0,0,1,0,.77c3.51-1.39,5.42-.41,6.77.7a9.66,9.66,0,0,1,2.85,4,21.77,21.77,0,0,1,1.36,5.2,33.91,33.91,0,0,1,.23,5c0,.73,0,1.44,0,2.14.17-2.19,1.65-2.75,3.08-2.93a7.42,7.42,0,0,1,4.29.68,10.16,10.16,0,0,1,3.69,3.14,17.88,17.88,0,0,1,2.27,4.54,24.22,24.22,0,0,1,1.28,5.13,44.89,44.89,0,0,1,.29,6.26q0,.86,0,1.66c3.09-1.73,5.23-1.21,6.91-.25a8.41,8.41,0,0,1,3.64,4.09,17.11,17.11,0,0,1,1,6.15c0,2.33-.09,4.89-.12,7.62s0,5.67.11,7.86.12,3.64.16,6.46,0,7,0,11.12A94.2,94.2,0,0,1,435.58,354c-1,6.27-2.94,15.76-4.82,23.1a26.58,26.58,0,0,0,9.78-1.05c3.63-1,8.84-3.12,29.89-9.7"/>
    <path class="cls-1" d="M470.44,545.18c-23.52-21-35-37.62-41.4-48s-8.61-15.83-11.37-20.82a61.77,61.77,0,0,0-8.45-12c-2.27-2.31-3.42-2.31-4.81-2a16.16,16.16,0,0,0-4.59,1.92c-1.55.95-3,2.18-5,3.43A17.73,17.73,0,0,1,387,470.7a32.49,32.49,0,0,1-10.48-1.18,35.37,35.37,0,0,1-9.06-3.41,22.37,22.37,0,0,1-6.63-5.8,34.75,34.75,0,0,1-4.8-8.45,32.13,32.13,0,0,1-2-9.11,57,57,0,0,1,0-10.36c.33-3.39,1-6.51,1.77-12.33A216.11,216.11,0,0,0,357.74,396c.21-9.75-.29-20.73-1-32.45s-1.61-24.18-1.89-36.71,0-25.16.38-32.41a82.34,82.34,0,0,1,1-11.19c.33-2,.66-4.26,1-7.29s.78-6.89,1.31-10.56A45,45,0,0,1,361,255.12a15,15,0,0,1,5.11-6.95,9.16,9.16,0,0,1,6.64-1.2,14.22,14.22,0,0,1,5.82,2.4,9.58,9.58,0,0,1,3.46,4.3,15.54,15.54,0,0,1,.89,2.85c2.54-4.23,4.09-4.62,5.68-4.77a10.25,10.25,0,0,1,4.71.52,9.8,9.8,0,0,1,3.95,3,8.5,8.5,0,0,1,1.89,4.46,6.54,6.54,0,0,1,0,.77c3.51-1.39,5.42-.41,6.77.7a9.66,9.66,0,0,1,2.85,4,21.77,21.77,0,0,1,1.36,5.2,33.91,33.91,0,0,1,.23,5c0,.73,0,1.44,0,2.14.17-2.19,1.65-2.75,3.08-2.93a7.42,7.42,0,0,1,4.29.68,10.16,10.16,0,0,1,3.69,3.14,17.88,17.88,0,0,1,2.27,4.54,24.22,24.22,0,0,1,1.28,5.13,44.89,44.89,0,0,1,.29,6.26q0,.86,0,1.66c3.09-1.73,5.23-1.21,6.91-.25a8.41,8.41,0,0,1,3.64,4.09,17.11,17.11,0,0,1,1,6.15c0,2.33-.09,4.89-.12,7.62s0,5.67.11,7.86.12,3.64.16,6.46,0,7,0,11.12A94.2,94.2,0,0,1,435.58,354c-1,6.27-2.94,15.76-4.82,23.1a26.58,26.58,0,0,0,9.78-1.05c3.63-1,8.84-3.12,29.89-9.7"/>
</svg>