<svg id="Default" xmlns="http://www.w3.org/2000/svg" viewBox="0 0 612 792">
    <defs>
        <style>.cls-1{fill:none;stroke:#000;stroke-linecap:round;stroke-linejoin:round;stroke-width:1.06px;}</style>
    </defs>
    <title>mdm</title>
    <path class="cls-1" d="M226.92,263.08c0-1.38,0-3.69-.05-5.13a5.61,5.61,0,0,0-.53-2.52,2.21,2.21,0,0,0-1.37-1.17,7.23,7.23,0,0,0-3.21-.19,7.88,7.88,0,0,0-3.6,1.51,11,11,0,0,0-2.47,2.79,2.59,2.59,0,0,0-.52,1.6,9.41,9.41,0,0,0,.37,2.13c.29,1.15.8,2.93,1.12,3.86s.48,1,.73,1.1a4.7,4.7,0,0,0,1.76.21,25.79,25.79,0,0,0,4.5-.37,7.85,7.85,0,0,0,2.69-1c.46-.28.53-.39.56-.67S226.92,264.46,226.92,263.08Z"/>
    <path class="cls-1" d="M212.69,267.93c0-1.11-.16-2.95-.26-4s-.17-1.2-.32-1.4a2.69,2.69,0,0,0-.75-.6,3.28,3.28,0,0,0-1.45-.48,4.5,4.5,0,0,0-2.3.49,6.31,6.31,0,0,0-2.39,2,5.53,5.53,0,0,0-.83,2.69,23,23,0,0,0,0,2.34,4.91,4.91,0,0,0,.13,1.59c.15.36.49.52,1.58.62a26.55,26.55,0,0,0,4.14,0,3.65,3.65,0,0,0,2.12-.65,1.05,1.05,0,0,0,.29-.87A13.77,13.77,0,0,0,212.69,267.93Z"/>
    <path class="cls-1" d="M200.31,281a16.08,16.08,0,0,0,.05-2.3,2.49,2.49,0,0,0-.55-1.64,2.83,2.83,0,0,0-1.83-.6,8.46,8.46,0,0,0-3,.25,4.86,4.86,0,0,0-2.1,1.33,3.42,3.42,0,0,0-.82,1.5,10.4,10.4,0,0,0-.36,1.84,4.54,4.54,0,0,0,0,1.31c.06.27.15.36.84.52a17.57,17.57,0,0,0,3.19.39,13.88,13.88,0,0,0,3.11-.3c.71-.16.94-.31,1.1-.67A5.62,5.62,0,0,0,200.31,281Z"/>
    <path class="cls-1" d="M179.5,300.91a16.58,16.58,0,0,1-.14-2.5,1.5,1.5,0,0,1,.7-1.34,5.3,5.3,0,0,1,2-.94,4.81,4.81,0,0,1,2.42.14,2,2,0,0,1,1.3,1.1,4.44,4.44,0,0,1,.17,1.67c0,.62,0,1.3,0,1.72a.83.83,0,0,1-.44.78,3.77,3.77,0,0,1-1.71.53,18.3,18.3,0,0,1-2.87,0,2.47,2.47,0,0,1-1.15-.23C179.63,301.71,179.57,301.55,179.5,300.91Z"/>
    <path class="cls-1" d="M186.83,296.31c-3.09-1.74-5.23-1.22-6.92-.26a8.34,8.34,0,0,0-3.64,4.1,17,17,0,0,0-1,6.15c0,2.32.09,4.88.12,7.62s0,5.66-.1,7.85-.13,3.65-.17,6.47,0,7,0,11.12a95.41,95.41,0,0,0,1.26,14.92c1,6.55,2.94,15.65,4.87,23.1"/>
    <path class="cls-1" d="M141.83,366.9c21.77,6.79,26,8.43,29.62,9.43a26.5,26.5,0,0,0,9.91,1,38.37,38.37,0,0,0,9.59-2.7c3.55-1.36,7.66-3.06,9.75-4.62"/>
    <path class="cls-1" d="M201.67,278.09c-.05-2.42-1.6-3-3.09-3.19a7.47,7.47,0,0,0-4.29.67,10.24,10.24,0,0,0-3.68,3.14,17.63,17.63,0,0,0-2.26,4.55,24.18,24.18,0,0,0-1.29,5.13,44.22,44.22,0,0,0-.28,6.25,44.92,44.92,0,0,0,.38,5.48c.22,1.54.54,2.74.7,4.05s.16,2.74.37,5.18"/>
    <path class="cls-1" d="M212.82,260.8c-3.51-1.39-5.41-.41-6.77.71a9.61,9.61,0,0,0-2.84,4,21.53,21.53,0,0,0-1.37,5.2,33,33,0,0,0-.22,5c0,1.59.07,3.11.15,4.57a29.42,29.42,0,0,1,.09,4.4,35.93,35.93,0,0,0-.44,5.14,56.21,56.21,0,0,0,1,5.94,59.06,59.06,0,0,1,.51,7.19"/>
    <path class="cls-1" d="M229.08,256.83c-2.53-4.22-4.1-4.61-5.68-4.76a10.16,10.16,0,0,0-4.7.52,9.75,9.75,0,0,0-3.94,3,8.44,8.44,0,0,0-1.89,4.46,27.31,27.31,0,0,0,.54,5.66c.3,2.29.52,5.12.78,7.12s.57,3.18.72,4.92a47.21,47.21,0,0,1,0,7c-.2,3-.59,6.54.2,7.72"/>
    <path class="cls-1" d="M141.56,544.87c24-21.34,34.9-36.89,41.4-47.35s8.62-15.83,11.38-20.83a61.36,61.36,0,0,1,8.43-12c2.27-2.32,3.42-2.32,4.81-2a16.45,16.45,0,0,1,4.59,1.93c1.56.94,3,2.17,5,3.44A17.7,17.7,0,0,0,225,471a32.4,32.4,0,0,0,10.49-1.19,35.61,35.61,0,0,0,9.05-3.4,22.37,22.37,0,0,0,6.64-5.82,34.31,34.31,0,0,0,4.79-8.44,31.93,31.93,0,0,0,2-9.1,58.4,58.4,0,0,0,0-10.37c-.33-3.4-1-6.51-1.76-12.33a218.52,218.52,0,0,1-1.88-24.09c-.2-9.75.29-20.73,1-32.45s1.6-24.17,1.88-36.71,0-25.16-.37-32.41a81.28,81.28,0,0,0-1-11.19c-.33-2-.66-4.26-1-7.29s-.78-6.88-1.31-10.57A44.65,44.65,0,0,0,251,255.42a15,15,0,0,0-5.11-6.94,9.15,9.15,0,0,0-6.65-1.2,14.26,14.26,0,0,0-5.82,2.39A9.59,9.59,0,0,0,230,254a19.25,19.25,0,0,0-1.37,7,55.86,55.86,0,0,0,.76,8.21c.37,2.72.67,5.33.91,7.43a27.6,27.6,0,0,1,.27,5.52c-.14,1.86-.6,4-.86,11.46"/>
    <path class="cls-1" d="M470.44,544.87c-24-21.34-34.9-36.89-41.4-47.35s-8.62-15.83-11.38-20.83a61.39,61.39,0,0,0-8.43-12c-2.27-2.32-3.42-2.32-4.81-2a16.45,16.45,0,0,0-4.59,1.93c-1.56.94-3,2.17-5,3.44A17.7,17.7,0,0,1,387,471a32.4,32.4,0,0,1-10.49-1.19,35.62,35.62,0,0,1-9.05-3.4,22.38,22.38,0,0,1-6.64-5.82,34.31,34.31,0,0,1-4.79-8.44,31.92,31.92,0,0,1-2-9.1,58.48,58.48,0,0,1,0-10.37c.33-3.4,1-6.51,1.76-12.33a218.44,218.44,0,0,0,1.88-24.09c.2-9.75-.29-20.73-1-32.45s-1.6-24.17-1.88-36.71,0-25.16.37-32.41a81.31,81.31,0,0,1,1-11.19c.33-2,.66-4.26,1-7.29s.78-6.88,1.31-10.57A44.67,44.67,0,0,1,361,255.42a15,15,0,0,1,5.11-6.94,9.15,9.15,0,0,1,6.65-1.2,14.26,14.26,0,0,1,5.82,2.39A9.59,9.59,0,0,1,382,254a19.24,19.24,0,0,1,1.37,7,55.91,55.91,0,0,1-.76,8.21c-.37,2.72-.68,5.33-.91,7.43a27.63,27.63,0,0,0-.27,5.52c.14,1.86.6,4,.86,11.46"/>
    <path class="cls-1" d="M382.92,256.83c2.53-4.22,4.1-4.61,5.68-4.76a10.15,10.15,0,0,1,4.7.52,9.75,9.75,0,0,1,3.94,3,8.43,8.43,0,0,1,1.89,4.46,27.33,27.33,0,0,1-.54,5.66c-.3,2.29-.52,5.12-.78,7.12s-.57,3.18-.72,4.92a47.21,47.21,0,0,0,0,7c.2,3,.59,6.54-.2,7.72"/>
    <path class="cls-1" d="M399.18,260.8c3.52-1.39,5.41-.41,6.77.71a9.61,9.61,0,0,1,2.84,4,21.55,21.55,0,0,1,1.37,5.2,33.08,33.08,0,0,1,.22,5c0,1.59-.07,3.11-.15,4.57a29.42,29.42,0,0,0-.09,4.4,36,36,0,0,1,.44,5.14,56.21,56.21,0,0,1-1,5.94,59.08,59.08,0,0,0-.51,7.19"/>
    <path class="cls-1" d="M410.33,278.09c.05-2.42,1.6-3,3.09-3.19a7.47,7.47,0,0,1,4.29.67,10.25,10.25,0,0,1,3.68,3.14,17.64,17.64,0,0,1,2.26,4.55,24.18,24.18,0,0,1,1.29,5.13,44.16,44.16,0,0,1,.28,6.25,45,45,0,0,1-.38,5.48c-.22,1.54-.54,2.74-.7,4.05s-.16,2.74-.37,5.18"/>
    <path class="cls-1" d="M470.17,366.9c-21.77,6.79-26,8.43-29.62,9.43a26.5,26.5,0,0,1-9.91,1,38.37,38.37,0,0,1-9.59-2.7c-3.55-1.36-7.66-3.06-9.75-4.62"/>
    <path class="cls-1" d="M425.17,296.31c3.09-1.74,5.23-1.22,6.92-.26a8.34,8.34,0,0,1,3.64,4.1,17,17,0,0,1,1,6.15c0,2.32-.08,4.88-.12,7.62s0,5.66.1,7.85.13,3.65.17,6.47,0,7,0,11.12a95.41,95.41,0,0,1-1.26,14.92c-1,6.55-2.94,15.65-4.87,23.1"/>
    <path class="cls-1" d="M432.51,300.91a16.63,16.63,0,0,0,.14-2.5,1.5,1.5,0,0,0-.7-1.34,5.3,5.3,0,0,0-2-.94,4.81,4.81,0,0,0-2.42.14,2,2,0,0,0-1.3,1.1,4.43,4.43,0,0,0-.17,1.67c0,.62,0,1.3,0,1.72a.83.83,0,0,0,.44.78,3.77,3.77,0,0,0,1.71.53,18.3,18.3,0,0,0,2.87,0,2.47,2.47,0,0,0,1.15-.23C432.37,301.71,432.43,301.55,432.51,300.91Z"/>
    <path class="cls-1" d="M411.69,281a16.08,16.08,0,0,1-.05-2.3,2.48,2.48,0,0,1,.55-1.64,2.83,2.83,0,0,1,1.83-.6,8.46,8.46,0,0,1,3,.25,4.86,4.86,0,0,1,2.1,1.33,3.42,3.42,0,0,1,.82,1.5,10.4,10.4,0,0,1,.36,1.84,4.52,4.52,0,0,1,0,1.31c-.06.27-.15.36-.84.52a17.57,17.57,0,0,1-3.19.39,13.87,13.87,0,0,1-3.11-.3c-.71-.16-.94-.31-1.1-.67A5.62,5.62,0,0,1,411.69,281Z"/>
    <path class="cls-1" d="M399.31,267.93c0-1.11.16-2.95.26-4s.17-1.2.32-1.4a2.69,2.69,0,0,1,.75-.6,3.28,3.28,0,0,1,1.45-.48,4.5,4.5,0,0,1,2.3.49,6.31,6.31,0,0,1,2.39,2,5.53,5.53,0,0,1,.83,2.69,22.89,22.89,0,0,1,0,2.34,4.91,4.91,0,0,1-.13,1.59c-.15.36-.49.52-1.58.62a26.54,26.54,0,0,1-4.14,0,3.65,3.65,0,0,1-2.12-.65,1.05,1.05,0,0,1-.29-.87A13.77,13.77,0,0,1,399.31,267.93Z"/>
    <path class="cls-1" d="M385.08,263.08c0-1.38,0-3.69.05-5.13a5.61,5.61,0,0,1,.53-2.52,2.21,2.21,0,0,1,1.37-1.17,7.23,7.23,0,0,1,3.21-.19,7.88,7.88,0,0,1,3.6,1.51,11,11,0,0,1,2.47,2.79,2.59,2.59,0,0,1,.52,1.6,9.41,9.41,0,0,1-.37,2.13c-.29,1.15-.8,2.93-1.12,3.86s-.48,1-.73,1.1a4.71,4.71,0,0,1-1.76.21,25.79,25.79,0,0,1-4.5-.37,7.85,7.85,0,0,1-2.69-1c-.46-.28-.53-.39-.56-.67S385.08,264.46,385.08,263.08Z"/>
    <path class="cls-1" d="M364.37,259.31c.35-1.5.88-3.91,1.33-5.35a3.7,3.7,0,0,1,1.4-2.3,4.9,4.9,0,0,1,2.62-.83,17.54,17.54,0,0,1,4.57.46,5.23,5.23,0,0,1,5.07,5.9,16,16,0,0,1-.31,3.37,37.16,37.16,0,0,1-.77,3.91,1.8,1.8,0,0,1-1.19,1.42,7.6,7.6,0,0,1-3.26.6,24.17,24.17,0,0,1-6.05-.79,5.35,5.35,0,0,1-2.94-1.84,3.69,3.69,0,0,1-.89-1.85A8.82,8.82,0,0,1,364.37,259.31Z"/>
    <rect class="cls-1" x="261.03" y="407.94" width="90.67" height="52.69"/>
    <path class="cls-1" d="M247.63,259.31c-.35-1.5-.88-3.91-1.33-5.35a3.7,3.7,0,0,0-1.4-2.3,4.9,4.9,0,0,0-2.62-.83,17.53,17.53,0,0,0-4.57.46,5.23,5.23,0,0,0-5.07,5.9,16,16,0,0,0,.31,3.37,37.15,37.15,0,0,0,.78,3.91,1.8,1.8,0,0,0,1.19,1.42,7.59,7.59,0,0,0,3.26.6,24.17,24.17,0,0,0,6.05-.79,5.35,5.35,0,0,0,2.94-1.84,3.69,3.69,0,0,0,.89-1.85A8.82,8.82,0,0,0,247.63,259.31Z"/>
</svg>